<svg width="24" height="24" viewBox="0 0 24 24" fill="none" xmlns="http://www.w3.org/2000/svg">
<path d="M12 18C8.69 18 6 15.31 6 12C6 8.69 8.69 6 12 6C15.31 6 18 8.69 18 12C18 15.31 15.31 18 12 18ZM12 8C9.79 8 8 9.79 8 12C8 14.21 9.79 16 12 16C14.21 16 16 14.21 16 12C16 9.79 14.21 8 12 8Z" fill="currentColor"/>
<path d="M12 4C12.55 4 13 3.55 13 3V1C13 0.45 12.55 0 12 0C11.45 0 11 0.45 11 1V3C11 3.55 11.45 4 12 4Z" fill="currentColor"/>
<path d="M12 24C11.45 24 11 23.55 11 23V21C11 20.45 11.45 20 12 20C12.55 20 13 20.45 13 21V23C13 23.55 12.55 24 12 24Z" fill="currentColor"/>
<path d="M20.66 7.34C21.05 6.95 21.05 6.32 20.66 5.93L19.07 4.34C18.68 3.95 18.05 3.95 17.66 4.34C17.27 4.73 17.27 5.36 17.66 5.75L19.25 7.34C19.64 7.73 20.27 7.73 20.66 7.34Z" fill="currentColor"/>
<path d="M6.34 19.66C5.95 20.05 5.32 20.05 4.93 19.66L3.34 18.07C2.95 17.68 2.95 17.05 3.34 16.66C3.73 16.27 4.36 16.27 4.75 16.66L6.34 18.25C6.73 18.64 6.73 19.27 6.34 19.66Z" fill="currentColor"/>
<path d="M4 13C3.45 13 3 12.55 3 12C3 11.45 3.45 11 4 11H6C6.55 11 7 11.45 7 12C7 12.55 6.55 13 6 13H4Z" fill="currentColor"/>
<path d="M20 13H18C17.45 13 17 12.55 17 12C17 11.45 17.45 11 18 11H20C20.55 11 21 11.45 21 12C21 12.55 20.55 13 20 13Z" fill="currentColor"/>
<path d="M4.93 7.34C5.32 7.73 5.95 7.73 6.34 7.34L7.93 5.75C8.32 5.36 8.32 4.73 7.93 4.34C7.54 3.95 6.91 3.95 6.52 4.34L4.93 5.93C4.54 6.32 4.54 6.95 4.93 7.34Z" fill="currentColor"/>
<path d="M17.66 19.66C17.27 20.05 16.64 20.05 16.25 19.66L14.66 18.07C14.27 17.68 14.27 17.05 14.66 16.66C15.05 16.27 15.68 16.27 16.07 16.66L17.66 18.25C18.05 18.64 18.05 19.27 17.66 19.66Z" fill="currentColor"/>
</svg>
